<mxfile host="app.diagrams.net" modified="2023-08-17T21:47:57.875Z" agent="Mozilla/5.0 (Windows NT 10.0; Win64; x64) AppleWebKit/537.36 (KHTML, like Gecko) Chrome/115.0.0.0 Safari/537.36" etag="weLwFJTqBPn0C-BKsqCZ" version="21.6.8" type="github">
  <diagram name="Page-1" id="Pzq38t9OyYFqljSTT705">
    <mxGraphModel dx="1420" dy="744" grid="1" gridSize="10" guides="1" tooltips="1" connect="1" arrows="1" fold="1" page="1" pageScale="1" pageWidth="850" pageHeight="1100" math="0" shadow="0">
      <root>
        <mxCell id="0" />
        <mxCell id="1" parent="0" />
        <mxCell id="e-izzVQ6DUV2GNQUyjB5-9" value="Owner" style="whiteSpace=wrap;strokeWidth=2;" vertex="1" parent="1">
          <mxGeometry x="10" y="110" width="72" height="60" as="geometry" />
        </mxCell>
        <mxCell id="e-izzVQ6DUV2GNQUyjB5-10" value="System" style="ellipse;aspect=fixed;strokeWidth=2;whiteSpace=wrap;" vertex="1" parent="1">
          <mxGeometry x="366" y="106" width="84" height="84" as="geometry" />
        </mxCell>
        <mxCell id="e-izzVQ6DUV2GNQUyjB5-11" value="Sales Person" style="rounded=1;absoluteArcSize=1;arcSize=14;whiteSpace=wrap;strokeWidth=2;" vertex="1" parent="1">
          <mxGeometry x="692" y="120" width="103" height="50" as="geometry" />
        </mxCell>
        <mxCell id="e-izzVQ6DUV2GNQUyjB5-12" value="```" style="whiteSpace=wrap;strokeWidth=2;" vertex="1" parent="1">
          <mxGeometry x="31" y="260" width="40" height="34" as="geometry" />
        </mxCell>
        <mxCell id="e-izzVQ6DUV2GNQUyjB5-13" value="Manages resources" style="curved=1;startArrow=none;endArrow=block;exitX=1.0025201612903225;exitY=0.39697448634003163;entryX=0.0002403846153846154;entryY=0.3876174286481167;rounded=0;" edge="1" parent="1" source="e-izzVQ6DUV2GNQUyjB5-9" target="e-izzVQ6DUV2GNQUyjB5-10">
          <mxGeometry relative="1" as="geometry">
            <Array as="points">
              <mxPoint x="224" y="100" />
            </Array>
          </mxGeometry>
        </mxCell>
        <mxCell id="e-izzVQ6DUV2GNQUyjB5-14" value="Creates account for sales person" style="curved=1;startArrow=none;endArrow=block;exitX=1.0025201612903225;exitY=0.6030255136599685;entryX=0.0002403846153846154;entryY=0.5;rounded=0;" edge="1" parent="1" source="e-izzVQ6DUV2GNQUyjB5-9" target="e-izzVQ6DUV2GNQUyjB5-10">
          <mxGeometry relative="1" as="geometry">
            <Array as="points">
              <mxPoint x="224" y="139" />
            </Array>
          </mxGeometry>
        </mxCell>
        <mxCell id="e-izzVQ6DUV2GNQUyjB5-15" value="Views reports and analysis" style="curved=1;startArrow=none;endArrow=block;exitX=1.0025201612903225;exitY=0.8090765409799052;entryX=0.0002403846153846154;entryY=0.6123825713518833;rounded=0;" edge="1" parent="1" source="e-izzVQ6DUV2GNQUyjB5-9" target="e-izzVQ6DUV2GNQUyjB5-10">
          <mxGeometry relative="1" as="geometry">
            <Array as="points">
              <mxPoint x="224" y="178" />
            </Array>
          </mxGeometry>
        </mxCell>
        <mxCell id="e-izzVQ6DUV2GNQUyjB5-16" value="Deducts sold item from stock" style="curved=1;startArrow=none;endArrow=block;exitX=1.0067307692307692;exitY=0.5;entryX=-0.003944174757281553;entryY=0.4852941176470588;rounded=0;" edge="1" parent="1" source="e-izzVQ6DUV2GNQUyjB5-10" target="e-izzVQ6DUV2GNQUyjB5-11">
          <mxGeometry relative="1" as="geometry">
            <Array as="points" />
          </mxGeometry>
        </mxCell>
        <mxCell id="e-izzVQ6DUV2GNQUyjB5-31" value="item deducted messageÂ " style="curved=1;startArrow=none;endArrow=block;rounded=0;entryX=1;entryY=1;entryDx=0;entryDy=0;exitX=0;exitY=0.726;exitDx=0;exitDy=0;exitPerimeter=0;" edge="1" parent="1" source="e-izzVQ6DUV2GNQUyjB5-10">
          <mxGeometry x="-0.2809" y="-33" relative="1" as="geometry">
            <Array as="points">
              <mxPoint x="260" y="250" />
            </Array>
            <mxPoint x="330" y="190" as="sourcePoint" />
            <mxPoint x="82" y="160" as="targetPoint" />
            <mxPoint as="offset" />
          </mxGeometry>
        </mxCell>
      </root>
    </mxGraphModel>
  </diagram>
</mxfile>
